#tb 0: 1/24
#media_type 0: video
#codec_id 0: rawvideo
#dimensions 0: 320x176
#sar 0: 0/1
0,          0,          0,        1,    84480, 0x7760a00b
0,         29,         29,        1,    84480, 0xfe39a1db
0,         30,         30,        1,    84480, 0xd71961b4
0,         31,         31,        1,    84480, 0xc80dedba
0,         32,         32,        1,    84480, 0x34d8b538
0,         33,         33,        1,    84480, 0x1a86b8e5
0,         34,         34,        1,    84480, 0xabf7c25d
0,         35,         35,        1,    84480, 0x912600ee
0,         36,         36,        1,    84480, 0x7ee7c70b
0,         37,         37,        1,    84480, 0x09c5b0d1
0,         38,         38,        1,    84480, 0x6dbe6c0c
0,         39,         39,        1,    84480, 0x0fe0a120
0,         40,         40,        1,    84480, 0x2352d3a2
0,         41,         41,        1,    84480, 0xb22ce92e
0,         42,         42,        1,    84480, 0x31db0099
0,         43,         43,        1,    84480, 0xad2dd73a
0,         44,         44,        1,    84480, 0xb9af8e20
0,         45,         45,        1,    84480, 0x7b956549
0,         46,         46,        1,    84480, 0x3f774b87
0,         47,         47,        1,    84480, 0x824a23a3
0,         48,         48,        1,    84480, 0x4469a8d8
0,         49,         49,        1,    84480, 0xc80c7a0a
0,         50,         50,        1,    84480, 0xcf958549
0,         51,         51,        1,    84480, 0x449746e3
0,         52,         52,        1,    84480, 0xbac66a82
0,         53,         53,        1,    84480, 0x99e85855
0,         54,         54,        1,    84480, 0xa4a17d17
0,         55,         55,        1,    84480, 0xe29c7587
0,         56,         56,        1,    84480, 0x551de592
0,         57,         57,        1,    84480, 0xe0877bce
0,         58,         58,        1,    84480, 0x9660eb35
0,         59,         59,        1,    84480, 0x0a34b644
0,         60,         60,        1,    84480, 0x352919f0
0,         61,         61,        1,    84480, 0xef56ce27
0,         62,         62,        1,    84480, 0x030fe862
0,         63,         63,        1,    84480, 0x2eba33e2
0,         64,         64,        1,    84480, 0x242de401
0,         65,         65,        1,    84480, 0xbadd61ca
0,         66,         66,        1,    84480, 0x2060465b
0,         67,         67,        1,    84480, 0x256e6965
0,         68,         68,        1,    84480, 0x243b7084
0,         69,         69,        1,    84480, 0x8b3c0b47
0,         70,         70,        1,    84480, 0xc174a9af
0,         71,         71,        1,    84480, 0xb6d48686
0,         72,         72,        1,    84480, 0xa3dd1871
0,         73,         73,        1,    84480, 0x04cdcaf7
0,         74,         74,        1,    84480, 0x55f89c94
0,         75,         75,        1,    84480, 0xda657032
0,         76,         76,        1,    84480, 0x38ba7698
0,         77,         77,        1,    84480, 0x4d03a7f2
0,         78,         78,        1,    84480, 0x115d9035
0,         79,         79,        1,    84480, 0x24c6acc6
0,         80,         80,        1,    84480, 0xdd2bbcae
0,         81,         81,        1,    84480, 0xb4fee0b9
0,         82,         82,        1,    84480, 0xc51c14e0
0,         83,         83,        1,    84480, 0xfb7737de
0,         84,         84,        1,    84480, 0x38675fb0
0,         85,         85,        1,    84480, 0x4752c710
0,         86,         86,        1,    84480, 0xfeb7491b
0,         87,         87,        1,    84480, 0xaa248122
0,         88,         88,        1,    84480, 0x9a4af87c
0,         89,         89,        1,    84480, 0xedcf09df
0,         90,         90,        1,    84480, 0x563a05df
0,         91,         91,        1,    84480, 0x0dde1e03
0,         92,         92,        1,    84480, 0xd8f0ff65
0,         93,         93,        1,    84480, 0xbeb9ae1a
0,         94,         94,        1,    84480, 0x416d1468
0,         95,         95,        1,    84480, 0x66c87d4c
0,         96,         96,        1,    84480, 0xa67c0774
0,         97,         97,        1,    84480, 0xd8f8aec1
0,         98,         98,        1,    84480, 0xadfa502b
0,         99,         99,        1,    84480, 0x50bf20e4
0,        100,        100,        1,    84480, 0xbcb3d8cc
0,        101,        101,        1,    84480, 0xa54677d7
0,        102,        102,        1,    84480, 0x3566042d
0,        103,        103,        1,    84480, 0x4c9eed57
0,        104,        104,        1,    84480, 0xc3b90e58
0,        105,        105,        1,    84480, 0x3c042bfa
0,        106,        106,        1,    84480, 0x19f8e890
0,        107,        107,        1,    84480, 0xd3dacfb9
0,        108,        108,        1,    84480, 0x2365fc6f
0,        109,        109,        1,    84480, 0xa2c19d00
0,        110,        110,        1,    84480, 0xce94336f
0,        111,        111,        1,    84480, 0xfa9bcf14
0,        118,        118,        1,    84480, 0x24d6a243
0,        119,        119,        1,    84480, 0xae1c8854
0,        120,        120,        1,    84480, 0xbb8968bf
0,        121,        121,        1,    84480, 0x6f923623
0,        122,        122,        1,    84480, 0x22e98029
0,        123,        123,        1,    84480, 0x8ac33af3
0,        124,        124,        1,    84480, 0x05947b6e
0,        125,        125,        1,    84480, 0xfc35661a
0,        126,        126,        1,    84480, 0x0e6b6e47
0,        127,        127,        1,    84480, 0x82c764bb
0,        128,        128,        1,    84480, 0x57a36833
0,        129,        129,        1,    84480, 0xc8dd690a
0,        130,        130,        1,    84480, 0x02c47232
0,        131,        131,        1,    84480, 0x6645715d
0,        132,        132,        1,    84480, 0xc64860f7
0,        133,        133,        1,    84480, 0x4f5614b3
0,        134,        134,        1,    84480, 0xa70842ca
0,        135,        135,        1,    84480, 0x379d8458
0,        136,        136,        1,    84480, 0xa14701cf
0,        137,        137,        1,    84480, 0xad1aa2b2
0,        138,        138,        1,    84480, 0xee28f320
0,        139,        139,        1,    84480, 0x505801e9
0,        140,        140,        1,    84480, 0x7947233b
0,        141,        141,        1,    84480, 0x3ce72a9d
0,        142,        142,        1,    84480, 0xa6834e64
0,        143,        143,        1,    84480, 0xfebf4d70
0,        144,        144,        1,    84480, 0x4a0775e2
0,        145,        145,        1,    84480, 0x9d7e945b
0,        146,        146,        1,    84480, 0xaa9eadd9
0,        147,        147,        1,    84480, 0xaa85c9b1
0,        148,        148,        1,    84480, 0xa005edaf
0,        149,        149,        1,    84480, 0x7fc4e5cc
0,        150,        150,        1,    84480, 0xb0f6e8d1
0,        151,        151,        1,    84480, 0x9ef9f330
0,        152,        152,        1,    84480, 0xbe14ff1f
0,        153,        153,        1,    84480, 0xd494048c
0,        154,        154,        1,    84480, 0x046166a7
0,        155,        155,        1,    84480, 0x052a09b2
0,        156,        156,        1,    84480, 0x71fff4ab
0,        157,        157,        1,    84480, 0xb9684e41
0,        158,        158,        1,    84480, 0x1ddce068
0,        159,        159,        1,    84480, 0xb9de300e
0,        160,        160,        1,    84480, 0x13962590
0,        161,        161,        1,    84480, 0xde79482f
0,        162,        162,        1,    84480, 0x7d1ca064
